<svg width="81" height="25" viewBox="0 0 81 25" fill="none" xmlns="http://www.w3.org/2000/svg">
<path d="M10.15 2.44059H14.02L23.26 24.1357H17.98L16.15 19.5393H7.89997L6.12997 24.1357H0.969971L10.15 2.44059ZM11.95 8.75301L9.36997 15.4944H14.56L11.95 8.75301Z" fill="#01996D"/>
<path d="M24.8863 0.969727H29.3863V24.1357H24.8863V0.969727Z" fill="#01996D"/>
<path d="M32.6793 9.2433H37.1793V24.1357H32.6793V9.2433ZM32.3193 4.55494C32.3193 3.81951 32.5693 3.19644 33.0693 2.68573C33.5893 2.15458 34.2093 1.88901 34.9293 1.88901C35.6493 1.88901 36.2593 2.15458 36.7593 2.68573C37.2793 3.19644 37.5393 3.81951 37.5393 4.55494C37.5393 5.29037 37.2793 5.92366 36.7593 6.4548C36.2593 6.96551 35.6493 7.22087 34.9293 7.22087C34.2093 7.22087 33.5893 6.96551 33.0693 6.4548C32.5693 5.92366 32.3193 5.29037 32.3193 4.55494Z" fill="#01996D"/>
<path d="M38.8822 9.2433H43.7422L47.4322 19.3554H47.4922L50.9122 9.2433H55.4422L49.6822 24.1357H44.9122L38.8822 9.2433Z" fill="#01996D"/>
<path d="M57.1422 9.2433H61.6422V24.1357H57.1422V9.2433ZM56.7822 4.55494C56.7822 3.81951 57.0322 3.19644 57.5322 2.68573C58.0522 2.15458 58.6722 1.88901 59.3922 1.88901C60.1122 1.88901 60.7222 2.15458 61.2222 2.68573C61.7422 3.19644 62.0022 3.81951 62.0022 4.55494C62.0022 5.29037 61.7422 5.92366 61.2222 6.4548C60.7222 6.96551 60.1122 7.22087 59.3922 7.22087C58.6722 7.22087 58.0522 6.96551 57.5322 6.4548C57.0322 5.92366 56.7822 5.29037 56.7822 4.55494Z" fill="#01996D"/>
<path d="M64.3351 16.6895C64.3351 15.5047 64.5451 14.4322 64.9651 13.472C65.3851 12.5119 65.9551 11.6947 66.6751 11.0206C67.4151 10.326 68.2751 9.79487 69.2551 9.42716C70.2551 9.05944 71.3151 8.87558 72.4351 8.87558C73.5551 8.87558 74.6051 9.05944 75.5851 9.42716C76.5851 9.79487 77.4451 10.326 78.1651 11.0206C78.9051 11.6947 79.4851 12.5119 79.9051 13.472C80.3251 14.4322 80.5351 15.5047 80.5351 16.6895C80.5351 17.8744 80.3251 18.9469 79.9051 19.907C79.4851 20.8672 78.9051 21.6945 78.1651 22.3891C77.4451 23.0632 76.5851 23.5842 75.5851 23.9519C74.6051 24.3196 73.5551 24.5034 72.4351 24.5034C71.3151 24.5034 70.2551 24.3196 69.2551 23.9519C68.2751 23.5842 67.4151 23.0632 66.6751 22.3891C65.9551 21.6945 65.3851 20.8672 64.9651 19.907C64.5451 18.9469 64.3351 17.8744 64.3351 16.6895ZM68.8351 16.6895C68.8351 17.8131 69.1451 18.7222 69.7651 19.4167C70.4051 20.1113 71.2951 20.4586 72.4351 20.4586C73.5751 20.4586 74.4551 20.1113 75.0751 19.4167C75.7151 18.7222 76.0351 17.8131 76.0351 16.6895C76.0351 15.5659 75.7151 14.6569 75.0751 13.9623C74.4551 13.2677 73.5751 12.9204 72.4351 12.9204C71.2951 12.9204 70.4051 13.2677 69.7651 13.9623C69.1451 14.6569 68.8351 15.5659 68.8351 16.6895Z" fill="#01996D"/>
</svg>
